<svg width="820" height="568" viewBox="0 0 820 568" fill="none" xmlns="http://www.w3.org/2000/svg">
<g opacity="0.2">
<path d="M0.711805 17.4043C0.711517 17.9655 0.821844 18.5213 1.03648 19.0398C1.25111 19.5584 1.56584 20.0295 1.96268 20.4264C2.35952 20.8232 2.83068 21.1379 3.34923 21.3526C3.86778 21.5672 4.42354 21.6775 4.98476 21.6772L24.0063 21.6772C24.5675 21.6775 25.1233 21.5672 25.6418 21.3526C26.1604 21.1379 26.6315 20.8232 27.0284 20.4264C27.4252 20.0295 27.7399 19.5584 27.9546 19.0398C28.1692 18.5213 28.2795 17.9655 28.2792 17.4043L28.2792 -1.61725C28.2795 -2.17846 28.1692 -2.73423 27.9546 -3.25278C27.7399 -3.77133 27.4252 -4.24249 27.0284 -4.63932C26.6315 -5.03616 26.1604 -5.35089 25.6418 -5.56553C25.1233 -5.78016 24.5675 -5.89049 24.0063 -5.8902L4.98475 -5.8902C4.42354 -5.89048 3.86777 -5.78016 3.34922 -5.56552C2.83068 -5.35089 2.35951 -5.03616 1.96268 -4.63932C1.56584 -4.24248 1.25111 -3.77132 1.03647 -3.25277C0.821841 -2.73423 0.711513 -2.17846 0.7118 -1.61724L0.711805 17.4043Z" stroke="#EF4444" stroke-width="5.31631" stroke-linecap="round" stroke-linejoin="round"/>
<path d="M-26.1998 205.661C-26.2001 206.222 -26.0898 206.778 -25.8752 207.296C-25.6605 207.815 -25.3458 208.286 -24.949 208.683C-24.5521 209.08 -24.081 209.394 -23.5624 209.609C-23.0439 209.824 -22.4881 209.934 -21.9269 209.934L-2.90535 209.934C-2.34414 209.934 -1.78837 209.824 -1.26982 209.609C-0.751272 209.394 -0.280112 209.08 0.116726 208.683C0.513563 208.286 0.828296 207.815 1.04293 207.296C1.25756 206.778 1.36789 206.222 1.3676 205.661L1.3676 186.639C1.36789 186.078 1.25756 185.522 1.04293 185.004C0.828292 184.485 0.51356 184.014 0.116723 183.617C-0.280115 183.22 -0.751276 182.905 -1.26982 182.691C-1.78837 182.476 -2.34414 182.366 -2.90535 182.366L-21.9269 182.366C-22.4881 182.366 -23.0439 182.476 -23.5624 182.691C-24.081 182.905 -24.5521 183.22 -24.949 183.617C-25.3458 184.014 -25.6605 184.485 -25.8752 185.004C-26.0898 185.522 -26.2001 186.078 -26.1998 186.639L-26.1998 205.661Z" stroke="#EF4444" stroke-width="5.31631" stroke-linecap="round" stroke-linejoin="round"/>
<path d="M-4.17504 130.376C-4.90259 129.05 -5.92904 127.91 -7.17311 127.049C-8.41717 126.188 -9.84468 125.628 -11.3426 125.414C-12.8405 125.2 -14.3676 125.338 -15.8031 125.816C-17.2385 126.295 -18.5429 127.101 -19.6128 128.171C-20.6827 129.241 -21.4889 130.545 -21.9673 131.981C-22.4458 133.416 -22.5835 134.943 -22.3695 136.441C-22.1556 137.939 -21.5958 139.366 -20.7345 140.611C-19.8732 141.855 -18.7341 142.881 -17.4074 143.609C-18.3752 144.901 -19.0066 146.414 -19.2449 148.012C-19.4832 149.609 -19.3209 151.24 -18.7725 152.759C-18.2242 154.278 -17.307 155.637 -16.1035 156.714C-14.8999 157.79 -13.4477 158.551 -11.8773 158.928C-10.3069 159.304 -8.66757 159.285 -7.10663 158.871C-5.5457 158.457 -4.11208 157.661 -2.93463 156.556C-1.75718 155.451 -0.872797 154.07 -0.360966 152.539C0.150864 151.007 0.274101 149.372 -0.0023317 147.781C1.58962 148.062 3.22638 147.942 4.76056 147.433C6.29473 146.924 7.67814 146.041 8.78621 144.864C9.89428 143.687 10.6922 142.253 11.1082 140.691C11.5241 139.129 11.545 137.488 11.1689 135.915C10.7929 134.343 10.0317 132.889 8.95395 131.685C7.8762 130.48 6.51571 129.562 4.99499 129.014C3.47428 128.466 1.84109 128.304 0.242513 128.544C-1.35607 128.784 -2.86985 129.418 -4.16251 130.389L-4.17504 130.376Z" stroke="#0F172A" stroke-width="5.31631" stroke-linecap="round" stroke-linejoin="round"/>
<path d="M-0.00234985 147.781L5.43596 153.22" stroke="#0F172A" stroke-width="5.31631" stroke-linecap="round" stroke-linejoin="round"/>
<path d="M29.257 150.204C29.2567 150.765 29.367 151.321 29.5817 151.839C29.7963 152.358 30.111 152.829 30.5079 153.226C30.9047 153.623 31.3759 153.937 31.8944 154.152C32.413 154.367 32.9687 154.477 33.53 154.477L52.5515 154.477C53.1127 154.477 53.6685 154.367 54.187 154.152C54.7056 153.937 55.1767 153.623 55.5736 153.226C55.9704 152.829 56.2851 152.358 56.4998 151.839C56.7144 151.321 56.8247 150.765 56.8244 150.204L56.8244 131.182C56.8247 130.621 56.7144 130.065 56.4998 129.547C56.2851 129.028 55.9704 128.557 55.5736 128.16C55.1767 127.763 54.7056 127.449 54.187 127.234C53.6685 127.019 53.1127 126.909 52.5515 126.909L33.5299 126.909C32.9687 126.909 32.413 127.019 31.8944 127.234C31.3759 127.449 30.9047 127.763 30.5079 128.16C30.111 128.557 29.7963 129.028 29.5817 129.547C29.367 130.065 29.2567 130.621 29.257 131.182L29.257 150.204Z" stroke="#EF4444" stroke-width="5.31631" stroke-linecap="round" stroke-linejoin="round"/>
<path d="M5.45283 85.5622C5.49042 81.8657 5.18969 77.7807 2.32017 74.9112C0.492333 73.0833 -1.98674 72.0565 -4.57169 72.0565C-7.15664 72.0565 -9.63572 73.0833 -11.4636 74.9112C-13.6689 77.1166 -14.5962 79.2969 -14.5962 83.0561C-18.3554 83.0561 -20.5357 83.9834 -22.7411 86.1888C-24.569 88.0166 -25.5958 90.4957 -25.5958 93.0806C-25.5958 95.6656 -24.569 98.1446 -22.7411 99.9725C-19.8591 102.855 -15.7866 103.168 -12.0901 103.105L5.45283 103.105L5.45283 85.5622Z" stroke="#EF4444" stroke-width="5.31631" stroke-linecap="round" stroke-linejoin="round"/>
<path d="M30.5101 95.5783C30.5101 99.3375 30.7607 103.347 33.6427 106.229C34.5478 107.134 35.6222 107.852 36.8047 108.342C37.9873 108.832 39.2547 109.084 40.5346 109.084C43.1195 109.084 45.5986 108.057 47.4265 106.229C49.682 103.974 50.5591 101.844 50.5591 98.0844C54.3183 98.0844 56.4485 97.2073 58.704 94.9517C59.6091 94.0467 60.327 92.9722 60.8168 91.7897C61.3066 90.6072 61.5587 89.3398 61.5587 88.0599C61.5587 86.78 61.3066 85.5125 60.8168 84.33C60.327 83.1475 59.6091 82.0731 58.704 81.168C55.822 78.286 51.8122 78.0354 48.053 78.0354L30.5101 78.0354L30.5101 95.5783Z" stroke="#0F172A" stroke-width="5.31631" stroke-linecap="round" stroke-linejoin="round"/>
<path d="M50.5591 98.0844L55.5714 103.097" stroke="#0F172A" stroke-width="5.31631" stroke-linecap="round" stroke-linejoin="round"/>
<path d="M81.3842 98.0766C81.3839 98.6378 81.4942 99.1936 81.7088 99.7121C81.9235 100.231 82.2382 100.702 82.6351 101.099C83.0319 101.496 83.5031 101.81 84.0216 102.025C84.5401 102.24 85.0959 102.35 85.6571 102.35L104.679 102.35C105.24 102.35 105.796 102.24 106.314 102.025C106.833 101.81 107.304 101.496 107.701 101.099C108.098 100.702 108.412 100.231 108.627 99.7121C108.842 99.1936 108.952 98.6378 108.952 98.0766L108.952 79.0551C108.952 78.4938 108.842 77.9381 108.627 77.4195C108.412 76.901 108.098 76.4298 107.701 76.033C107.304 75.6361 106.833 75.3214 106.314 75.1068C105.796 74.8922 105.24 74.7818 104.679 74.7821L85.6571 74.7821C85.0959 74.7818 84.5401 74.8922 84.0216 75.1068C83.503 75.3214 83.0319 75.6362 82.635 76.033C82.2382 76.4298 81.9235 76.901 81.7088 77.4195C81.4942 77.9381 81.3839 78.4939 81.3842 79.0551L81.3842 98.0766Z" stroke="#EF4444" stroke-width="5.31631" stroke-linecap="round" stroke-linejoin="round"/>
<path d="M57.58 33.435C57.6176 29.7385 57.3169 25.6535 54.4474 22.784C52.6195 20.9561 50.1404 19.9293 47.5555 19.9293C44.9705 19.9293 42.4915 20.9561 40.6636 22.784C38.4582 24.9894 37.531 27.1697 37.531 30.9289C33.7718 30.9289 31.5914 31.8562 29.386 34.0616C27.5582 35.8894 26.5313 38.3685 26.5313 40.9534C26.5313 43.5384 27.5582 46.0174 29.386 47.8453C32.2681 50.7273 36.3406 51.0406 40.0371 50.9779L57.58 50.9779L57.58 33.435Z" stroke="#EF4444" stroke-width="5.31631" stroke-linecap="round" stroke-linejoin="round"/>
<path d="M103.409 22.7921C102.681 21.4654 101.655 20.3263 100.411 19.465C99.1669 18.6038 97.7394 18.044 96.2415 17.83C94.7436 17.616 93.2164 17.7537 91.781 18.2322C90.3455 18.7107 89.0412 19.5168 87.9713 20.5867C86.9013 21.6566 86.0952 22.961 85.6167 24.3964C85.1382 25.8319 85.0005 27.3591 85.2145 28.857C85.4285 30.3549 85.9883 31.7824 86.8496 33.0264C87.7108 34.2705 88.8499 35.2969 90.1767 36.0245C89.2088 37.3172 88.5774 38.8302 88.3391 40.4274C88.1009 42.0247 88.2632 43.6561 88.8115 45.175C89.3599 46.694 90.277 48.0529 91.4806 49.1296C92.6841 50.2063 94.1364 50.9671 95.7068 51.3436C97.2772 51.7201 98.9165 51.7004 100.477 51.2865C102.038 50.8725 103.472 50.0772 104.649 48.972C105.827 47.8668 106.711 46.4863 107.223 44.9547C107.735 43.4231 107.858 41.7882 107.582 40.1972C109.174 40.4778 110.81 40.3581 112.345 39.8488C113.879 39.3395 115.262 38.4566 116.37 37.2796C117.478 36.1027 118.276 34.6686 118.692 33.1065C119.108 31.5444 119.129 29.9034 118.753 28.3313C118.377 26.7591 117.616 25.3052 116.538 24.1004C115.46 22.8956 114.1 21.9778 112.579 21.4296C111.058 20.8814 109.425 20.7201 107.827 20.9601C106.228 21.2002 104.714 21.834 103.422 22.8046L103.409 22.7921Z" stroke="#0F172A" stroke-width="5.31631" stroke-linecap="round" stroke-linejoin="round"/>
<path d="M107.582 40.1972L113.02 45.6355" stroke="#0F172A" stroke-width="5.31631" stroke-linecap="round" stroke-linejoin="round"/>
<path d="M136.841 42.6197C136.841 43.1809 136.951 43.7367 137.166 44.2552C137.38 44.7738 137.695 45.2449 138.092 45.6418C138.489 46.0386 138.96 46.3533 139.478 46.568C139.997 46.7826 140.553 46.8929 141.114 46.8926L160.136 46.8926C160.697 46.8929 161.253 46.7826 161.771 46.568C162.29 46.3533 162.761 46.0386 163.158 45.6418C163.554 45.2449 163.869 44.7738 164.084 44.2552C164.298 43.7367 164.409 43.1809 164.408 42.6197L164.408 23.5982C164.409 23.0369 164.298 22.4812 164.084 21.9626C163.869 21.4441 163.554 20.9729 163.158 20.5761C162.761 20.1792 162.29 19.8645 161.771 19.6499C161.253 19.4352 160.697 19.3249 160.136 19.3252L141.114 19.3252C140.553 19.3249 139.997 19.4352 139.478 19.6499C138.96 19.8645 138.489 20.1792 138.092 20.5761C137.695 20.9729 137.38 21.4441 137.166 21.9626C136.951 22.4812 136.841 23.0369 136.841 23.5982L136.841 42.6197Z" stroke="#EF4444" stroke-width="5.31631" stroke-linecap="round" stroke-linejoin="round"/>
<path d="M113.037 -22.0219C113.074 -25.7184 112.774 -29.8034 109.904 -32.6729C108.076 -34.5008 105.597 -35.5276 103.012 -35.5276C100.427 -35.5276 97.9484 -34.5008 96.1205 -32.6729C93.9151 -30.4676 92.9879 -28.2872 92.9879 -24.528C89.2287 -24.528 87.0483 -23.6008 84.8429 -21.3954C83.0151 -19.5675 81.9882 -17.0884 81.9882 -14.5035C81.9882 -11.9185 83.0151 -9.43947 84.8429 -7.61164C87.725 -4.72959 91.7974 -4.41632 95.494 -4.47898L113.037 -4.47898L113.037 -22.0219Z" stroke="#EF4444" stroke-width="5.31631" stroke-linecap="round" stroke-linejoin="round"/>
<path d="M138.094 -12.0058C138.094 -8.24663 138.345 -4.23682 141.227 -1.35477C142.132 -0.449717 143.206 0.268209 144.389 0.75802C145.571 1.24783 146.839 1.49993 148.119 1.49993C150.704 1.49993 153.183 0.473063 155.011 -1.35477C157.266 -3.61029 158.143 -5.7405 158.143 -9.4997C161.902 -9.4997 164.033 -10.3768 166.288 -12.6324C167.193 -13.5374 167.911 -14.6119 168.401 -15.7944C168.891 -16.9769 169.143 -18.2443 169.143 -19.5242C169.143 -20.8042 168.891 -22.0716 168.401 -23.2541C167.911 -24.4366 167.193 -25.511 166.288 -26.4161C163.406 -29.2981 159.396 -29.5487 155.637 -29.5487L138.094 -29.5487L138.094 -12.0058Z" stroke="#0F172A" stroke-width="5.31631" stroke-linecap="round" stroke-linejoin="round"/>
<path d="M188.968 -9.50751C188.968 -8.9463 189.078 -8.39053 189.293 -7.87198C189.508 -7.35344 189.822 -6.88228 190.219 -6.48544C190.616 -6.0886 191.087 -5.77387 191.606 -5.55923C192.124 -5.3446 192.68 -5.23427 193.241 -5.23456L212.263 -5.23456C212.824 -5.23428 213.38 -5.3446 213.898 -5.55924C214.417 -5.77387 214.888 -6.0886 215.285 -6.48544C215.682 -6.88228 215.996 -7.35344 216.211 -7.87199C216.426 -8.39054 216.536 -8.9463 216.536 -9.50752L216.536 -28.529C216.536 -29.0903 216.426 -29.646 216.211 -30.1646C215.996 -30.6831 215.682 -31.1543 215.285 -31.5511C214.888 -31.948 214.417 -32.2627 213.898 -32.4773C213.38 -32.692 212.824 -32.8023 212.263 -32.802L193.241 -32.802C192.68 -32.8023 192.124 -32.692 191.606 -32.4773C191.087 -32.2627 190.616 -31.948 190.219 -31.5511C189.822 -31.1543 189.508 -30.6831 189.293 -30.1646C189.078 -29.646 188.968 -29.0903 188.968 -28.529L188.968 -9.50751Z" stroke="#EF4444" stroke-width="5.31631" stroke-linecap="round" stroke-linejoin="round"/>
<path d="M2.34533 338.46C2.34505 339.021 2.45537 339.577 2.67001 340.096C2.88464 340.614 3.19937 341.085 3.59621 341.482C3.99305 341.879 4.46421 342.194 4.98276 342.408C5.50131 342.623 6.05707 342.733 6.61829 342.733L25.6398 342.733C26.201 342.733 26.7568 342.623 27.2753 342.408C27.7939 342.194 28.2651 341.879 28.6619 341.482C29.0587 341.085 29.3735 340.614 29.5881 340.096C29.8027 339.577 29.9131 339.021 29.9128 338.46L29.9128 319.439C29.9131 318.877 29.8027 318.322 29.5881 317.803C29.3735 317.285 29.0587 316.813 28.6619 316.417C28.2651 316.02 27.7939 315.705 27.2753 315.49C26.7568 315.276 26.201 315.165 25.6398 315.166L6.61828 315.166C6.05707 315.165 5.5013 315.276 4.98275 315.49C4.46421 315.705 3.99304 316.02 3.59621 316.417C3.19937 316.813 2.88464 317.285 2.67 317.803C2.45537 318.322 2.34504 318.877 2.34533 319.439L2.34533 338.46Z" stroke="#EF4444" stroke-width="5.31631" stroke-linecap="round" stroke-linejoin="round"/>
<path d="M3.59836 283.835C3.59836 287.594 3.84897 291.604 6.73102 294.486C7.63607 295.391 8.71053 296.109 9.89303 296.599C11.0755 297.088 12.3429 297.34 13.6229 297.34C16.2078 297.34 18.6869 296.314 20.5147 294.486C22.7703 292.23 23.6474 290.1 23.6474 286.341C27.4066 286.341 29.5368 285.464 31.7923 283.208C32.6974 282.303 33.4153 281.229 33.9051 280.046C34.3949 278.864 34.647 277.596 34.647 276.316C34.647 275.036 34.3949 273.769 33.9051 272.586C33.4153 271.404 32.6974 270.33 31.7923 269.424C28.9103 266.542 24.9005 266.292 21.1413 266.292L3.59836 266.292L3.59836 283.835Z" stroke="#0F172A" stroke-width="5.31631" stroke-linecap="round" stroke-linejoin="round"/>
<path d="M23.6474 286.341L28.6597 291.353" stroke="#0F172A" stroke-width="5.31631" stroke-linecap="round" stroke-linejoin="round"/>
<path d="M54.4725 286.333C54.4722 286.894 54.5826 287.45 54.7972 287.969C55.0118 288.487 55.3266 288.958 55.7234 289.355C56.1202 289.752 56.5914 290.067 57.1099 290.281C57.6285 290.496 58.1843 290.606 58.7455 290.606L77.767 290.606C78.3282 290.606 78.884 290.496 79.4025 290.281C79.9211 290.067 80.3922 289.752 80.7891 289.355C81.1859 288.958 81.5006 288.487 81.7153 287.969C81.9299 287.45 82.0402 286.894 82.0399 286.333L82.0399 267.311C82.0402 266.75 81.9299 266.194 81.7153 265.676C81.5006 265.157 81.1859 264.686 80.7891 264.289C80.3922 263.893 79.9211 263.578 79.4025 263.363C78.884 263.149 78.3282 263.038 77.767 263.039L58.7455 263.039C58.1843 263.038 57.6285 263.149 57.1099 263.363C56.5914 263.578 56.1202 263.893 55.7234 264.289C55.3266 264.686 55.0118 265.157 54.7972 265.676C54.5826 266.194 54.4722 266.75 54.4725 267.311L54.4725 286.333Z" stroke="#EF4444" stroke-width="5.31631" stroke-linecap="round" stroke-linejoin="round"/>
<path d="M30.6684 221.691C30.706 217.995 30.4052 213.91 27.5357 211.04C25.7079 209.213 23.2288 208.186 20.6439 208.186C18.0589 208.186 15.5798 209.213 13.752 211.04C11.5466 213.246 10.6193 215.426 10.6193 219.185C6.86014 219.185 4.6798 220.113 2.47441 222.318C0.646574 224.146 -0.380292 226.625 -0.380292 229.21C-0.380292 231.795 0.646575 234.274 2.47441 236.102C5.35646 238.984 9.42892 239.297 13.1255 239.234L30.6684 239.234L30.6684 221.691Z" stroke="#EF4444" stroke-width="5.31631" stroke-linecap="round" stroke-linejoin="round"/>
<path d="M76.4973 211.049C75.7698 209.722 74.7433 208.583 73.4993 207.721C72.2552 206.86 70.8277 206.3 69.3298 206.086C67.8319 205.872 66.3047 206.01 64.8693 206.489C63.4338 206.967 62.1295 207.773 61.0596 208.843C59.9896 209.913 59.1835 211.217 58.705 212.653C58.2265 214.088 58.0888 215.615 58.3028 217.113C58.5168 218.611 59.0766 220.039 59.9379 221.283C60.7992 222.527 61.9383 223.553 63.265 224.281C62.2972 225.574 61.6657 227.087 61.4275 228.684C61.1892 230.281 61.3515 231.912 61.8998 233.431C62.4482 234.95 63.3653 236.309 64.5689 237.386C65.7724 238.463 67.2247 239.224 68.7951 239.6C70.3655 239.976 72.0048 239.957 73.5657 239.543C75.1267 239.129 76.5603 238.334 77.7377 237.228C78.9152 236.123 79.7996 234.743 80.3114 233.211C80.8232 231.679 80.9465 230.045 80.67 228.454C82.262 228.734 83.8988 228.615 85.4329 228.105C86.9671 227.596 88.3505 226.713 89.4586 225.536C90.5667 224.359 91.3646 222.925 91.7805 221.363C92.1965 219.801 92.2174 218.16 91.8413 216.588C91.4653 215.016 90.7041 213.562 89.6263 212.357C88.5486 211.152 87.1881 210.234 85.6674 209.686C84.1466 209.138 82.5135 208.977 80.9149 209.217C79.3163 209.457 77.8025 210.09 76.5099 211.061L76.4973 211.049Z" stroke="#0F172A" stroke-width="5.31631" stroke-linecap="round" stroke-linejoin="round"/>
<path d="M80.67 228.454L86.1083 233.892" stroke="#0F172A" stroke-width="5.31631" stroke-linecap="round" stroke-linejoin="round"/>
<path d="M109.929 230.876C109.929 231.437 110.039 231.993 110.254 232.512C110.469 233.03 110.783 233.501 111.18 233.898C111.577 234.295 112.048 234.61 112.567 234.824C113.085 235.039 113.641 235.149 114.202 235.149L133.224 235.149C133.785 235.149 134.341 235.039 134.859 234.824C135.378 234.61 135.849 234.295 136.246 233.898C136.643 233.501 136.957 233.03 137.172 232.512C137.387 231.993 137.497 231.437 137.497 230.876L137.497 211.855C137.497 211.293 137.387 210.738 137.172 210.219C136.957 209.701 136.643 209.229 136.246 208.833C135.849 208.436 135.378 208.121 134.859 207.906C134.341 207.692 133.785 207.581 133.224 207.582L114.202 207.582C113.641 207.581 113.085 207.692 112.567 207.906C112.048 208.121 111.577 208.436 111.18 208.833C110.783 209.229 110.469 209.701 110.254 210.219C110.039 210.738 109.929 211.293 109.929 211.855L109.929 230.876Z" stroke="#EF4444" stroke-width="5.31631" stroke-linecap="round" stroke-linejoin="round"/>
<path d="M86.1252 166.235C86.1628 162.538 85.8621 158.453 82.9926 155.584C81.1647 153.756 78.6857 152.729 76.1007 152.729C73.5158 152.729 71.0367 153.756 69.2088 155.584C67.0034 157.789 66.0762 159.969 66.0762 163.728C62.317 163.728 60.1367 164.656 57.9313 166.861C56.1034 168.689 55.0766 171.168 55.0766 173.753C55.0766 176.338 56.1034 178.817 57.9313 180.645C60.8133 183.527 64.8858 183.84 68.5823 183.777L86.1252 183.777L86.1252 166.235Z" stroke="#EF4444" stroke-width="5.31631" stroke-linecap="round" stroke-linejoin="round"/>
<path d="M111.182 176.251C111.182 180.01 111.433 184.02 114.315 186.902C115.22 187.807 116.295 188.525 117.477 189.014C118.66 189.504 119.927 189.756 121.207 189.756C123.792 189.756 126.271 188.729 128.099 186.902C130.354 184.646 131.231 182.516 131.231 178.757C134.991 178.757 137.121 177.88 139.376 175.624C140.281 174.719 140.999 173.645 141.489 172.462C141.979 171.28 142.231 170.012 142.231 168.732C142.231 167.452 141.979 166.185 141.489 165.002C140.999 163.82 140.281 162.745 139.376 161.84C136.494 158.958 132.485 158.708 128.725 158.708L111.182 158.708L111.182 176.251Z" stroke="#0F172A" stroke-width="5.31631" stroke-linecap="round" stroke-linejoin="round"/>
<path d="M131.231 178.757L136.244 183.769" stroke="#0F172A" stroke-width="5.31631" stroke-linecap="round" stroke-linejoin="round"/>
<path d="M162.057 178.749C162.056 179.31 162.167 179.866 162.381 180.384C162.596 180.903 162.911 181.374 163.307 181.771C163.704 182.168 164.175 182.483 164.694 182.697C165.213 182.912 165.768 183.022 166.329 183.022L185.351 183.022C185.912 183.022 186.468 182.912 186.987 182.697C187.505 182.483 187.976 182.168 188.373 181.771C188.77 181.374 189.085 180.903 189.299 180.384C189.514 179.866 189.624 179.31 189.624 178.749L189.624 159.727C189.624 159.166 189.514 158.61 189.299 158.092C189.085 157.573 188.77 157.102 188.373 156.705C187.976 156.308 187.505 155.994 186.987 155.779C186.468 155.564 185.912 155.454 185.351 155.454L166.329 155.454C165.768 155.454 165.213 155.564 164.694 155.779C164.175 155.994 163.704 156.308 163.307 156.705C162.911 157.102 162.596 157.573 162.381 158.092C162.167 158.61 162.056 159.166 162.057 159.727L162.057 178.749Z" stroke="#EF4444" stroke-width="5.31631" stroke-linecap="round" stroke-linejoin="round"/>
<path d="M138.252 114.107C138.29 110.411 137.989 106.326 135.12 103.456C133.292 101.628 130.813 100.602 128.228 100.602C125.643 100.602 123.164 101.628 121.336 103.456C119.131 105.662 118.203 107.842 118.203 111.601C114.444 111.601 112.264 112.529 110.058 114.734C108.231 116.562 107.204 119.041 107.204 121.626C107.204 124.211 108.231 126.69 110.058 128.518C112.94 131.4 117.013 131.713 120.709 131.65L138.252 131.65L138.252 114.107Z" stroke="#EF4444" stroke-width="5.31631" stroke-linecap="round" stroke-linejoin="round"/>
<path d="M184.081 103.464C183.354 102.138 182.327 100.999 181.083 100.137C179.839 99.2761 178.412 98.7163 176.914 98.5023C175.416 98.2883 173.889 98.426 172.453 98.9045C171.018 99.383 169.714 100.189 168.644 101.259C167.574 102.329 166.768 103.633 166.289 105.069C165.811 106.504 165.673 108.031 165.887 109.529C166.101 111.027 166.661 112.455 167.522 113.699C168.383 114.943 169.522 115.969 170.849 116.697C169.881 117.99 169.25 119.503 169.012 121.1C168.773 122.697 168.936 124.328 169.484 125.847C170.032 127.366 170.949 128.725 172.153 129.802C173.357 130.879 174.809 131.639 176.379 132.016C177.95 132.392 179.589 132.373 181.15 131.959C182.711 131.545 184.144 130.75 185.322 129.644C186.499 128.539 187.384 127.159 187.895 125.627C188.407 124.095 188.531 122.461 188.254 120.87C189.846 121.15 191.483 121.03 193.017 120.521C194.551 120.012 195.935 119.129 197.043 117.952C198.151 116.775 198.949 115.341 199.365 113.779C199.781 112.217 199.801 110.576 199.425 109.004C199.049 107.431 198.288 105.978 197.21 104.773C196.133 103.568 194.772 102.65 193.251 102.102C191.731 101.554 190.098 101.392 188.499 101.632C186.9 101.872 185.387 102.506 184.094 103.477L184.081 103.464Z" stroke="#0F172A" stroke-width="5.31631" stroke-linecap="round" stroke-linejoin="round"/>
<path d="M188.254 120.87L193.692 126.308" stroke="#0F172A" stroke-width="5.31631" stroke-linecap="round" stroke-linejoin="round"/>
<path d="M217.513 123.292C217.513 123.853 217.623 124.409 217.838 124.928C218.053 125.446 218.367 125.917 218.764 126.314C219.161 126.711 219.632 127.026 220.151 127.24C220.669 127.455 221.225 127.565 221.786 127.565L240.808 127.565C241.369 127.565 241.925 127.455 242.443 127.24C242.962 127.026 243.433 126.711 243.83 126.314C244.227 125.917 244.542 125.446 244.756 124.928C244.971 124.409 245.081 123.853 245.081 123.292L245.081 104.27C245.081 103.709 244.971 103.154 244.756 102.635C244.542 102.116 244.227 101.645 243.83 101.248C243.433 100.852 242.962 100.537 242.443 100.322C241.925 100.108 241.369 99.9972 240.808 99.9975L221.786 99.9975C221.225 99.9973 220.669 100.108 220.151 100.322C219.632 100.537 219.161 100.852 218.764 101.248C218.367 101.645 218.053 102.116 217.838 102.635C217.623 103.154 217.513 103.709 217.513 104.27L217.513 123.292Z" stroke="#EF4444" stroke-width="5.31631" stroke-linecap="round" stroke-linejoin="round"/>
<path d="M193.709 58.6505C193.747 54.9539 193.446 50.8689 190.577 47.9994C188.749 46.1716 186.27 45.1447 183.685 45.1447C181.1 45.1447 178.621 46.1716 176.793 47.9994C174.588 50.2048 173.66 52.3851 173.66 56.1443C169.901 56.1443 167.721 57.0716 165.515 59.277C163.687 61.1048 162.661 63.5839 162.661 66.1689C162.661 68.7538 163.687 71.2329 165.515 73.0607C168.397 75.9428 172.47 76.256 176.166 76.1934L193.709 76.1934L193.709 58.6505Z" stroke="#EF4444" stroke-width="5.31631" stroke-linecap="round" stroke-linejoin="round"/>
<path d="M218.766 68.6665C218.766 72.4257 219.017 76.4355 221.899 79.3175C222.804 80.2226 223.879 80.9405 225.061 81.4303C226.244 81.9201 227.511 82.1722 228.791 82.1722C231.376 82.1722 233.855 81.1454 235.683 79.3175C237.938 77.062 238.816 74.9318 238.816 71.1726C242.575 71.1726 244.705 70.2955 246.96 68.04C247.866 67.1349 248.583 66.0604 249.073 64.8779C249.563 63.6954 249.815 62.428 249.815 61.1481C249.815 59.8682 249.563 58.6008 249.073 57.4182C248.583 56.2357 247.866 55.1613 246.96 54.2562C244.078 51.3742 240.069 51.1236 236.309 51.1236L218.766 51.1236L218.766 68.6665Z" stroke="#0F172A" stroke-width="5.31631" stroke-linecap="round" stroke-linejoin="round"/>
<path d="M238.816 71.1726L243.828 76.1849" stroke="#0F172A" stroke-width="5.31631" stroke-linecap="round" stroke-linejoin="round"/>
<path d="M269.641 71.1648C269.64 71.726 269.751 72.2818 269.965 72.8004C270.18 73.3189 270.495 73.7901 270.891 74.1869C271.288 74.5837 271.759 74.8985 272.278 75.1131C272.797 75.3277 273.352 75.4381 273.914 75.4378L292.935 75.4378C293.496 75.4381 294.052 75.3277 294.571 75.1131C295.089 74.8985 295.56 74.5837 295.957 74.1869C296.354 73.7901 296.669 73.3189 296.883 72.8003C297.098 72.2818 297.208 71.726 297.208 71.1648L297.208 52.1433C297.208 51.5821 297.098 51.0263 296.883 50.5078C296.669 49.9892 296.354 49.518 295.957 49.1212C295.56 48.7244 295.089 48.4096 294.571 48.195C294.052 47.9804 293.496 47.87 292.935 47.8703L273.914 47.8703C273.352 47.8701 272.797 47.9804 272.278 48.195C271.759 48.4096 271.288 48.7244 270.891 49.1212C270.495 49.5181 270.18 49.9892 269.965 50.5078C269.751 51.0263 269.64 51.5821 269.641 52.1433L269.641 71.1648Z" stroke="#EF4444" stroke-width="5.31631" stroke-linecap="round" stroke-linejoin="round"/>
<path d="M245.836 6.52326C245.874 2.82672 245.573 -1.25828 242.704 -4.1278C240.876 -5.95563 238.397 -6.9825 235.812 -6.9825C233.227 -6.9825 230.748 -5.95563 228.92 -4.12779C226.715 -1.9224 225.787 0.257936 225.787 4.01713C222.028 4.01713 219.848 4.9444 217.643 7.1498C215.815 8.97763 214.788 11.4567 214.788 14.0417C214.788 16.6266 215.815 19.1057 217.643 20.9335C220.525 23.8156 224.597 24.1288 228.294 24.0662L245.836 24.0662L245.836 6.52326Z" stroke="#EF4444" stroke-width="5.31631" stroke-linecap="round" stroke-linejoin="round"/>
<path d="M291.665 -4.11962C290.938 -5.44633 289.911 -6.58543 288.667 -7.4467C287.423 -8.30798 285.996 -8.86777 284.498 -9.08176C283 -9.29574 281.473 -9.15804 280.037 -8.67956C278.602 -8.20107 277.298 -7.39494 276.228 -6.32501C275.158 -5.25509 274.352 -3.95075 273.873 -2.51529C273.395 -1.07983 273.257 0.44732 273.471 1.94522C273.685 3.44312 274.245 4.87062 275.106 6.11469C275.967 7.35875 277.106 8.3852 278.433 9.11275C277.465 10.4055 276.834 11.9185 276.596 13.5157C276.357 15.1129 276.52 16.7443 277.068 18.2633C277.616 19.7822 278.533 21.1411 279.737 22.2178C280.941 23.2946 282.393 24.0553 283.963 24.4318C285.534 24.8083 287.173 24.7887 288.734 24.3748C290.295 23.9608 291.728 23.1655 292.906 22.0603C294.083 20.9551 294.968 19.5746 295.48 18.043C295.991 16.5113 296.115 14.8765 295.838 13.2855C297.43 13.5661 299.067 13.4464 300.601 12.9371C302.135 12.4278 303.519 11.5449 304.627 10.3679C305.735 9.19094 306.533 7.75685 306.949 6.19477C307.365 4.6327 307.385 2.9917 307.009 1.41955C306.633 -0.152606 305.872 -1.60654 304.794 -2.81134C303.717 -4.01613 302.356 -4.93394 300.835 -5.48212C299.315 -6.0303 297.682 -6.19165 296.083 -5.95161C294.484 -5.71158 292.971 -5.07771 291.678 -4.10709L291.665 -4.11962Z" stroke="#0F172A" stroke-width="5.31631" stroke-linecap="round" stroke-linejoin="round"/>
<path d="M295.838 13.2854L301.276 18.7237" stroke="#0F172A" stroke-width="5.31631" stroke-linecap="round" stroke-linejoin="round"/>
<path d="M325.097 15.708C325.097 16.2692 325.208 16.8249 325.422 17.3435C325.637 17.862 325.952 18.3332 326.348 18.73C326.745 19.1269 327.216 19.4416 327.735 19.6562C328.253 19.8709 328.809 19.9812 329.37 19.9809L348.392 19.9809C348.953 19.9812 349.509 19.8709 350.027 19.6562C350.546 19.4416 351.017 19.1269 351.414 18.73C351.811 18.3332 352.126 17.862 352.34 17.3435C352.555 16.8249 352.665 16.2692 352.665 15.7079L352.665 -3.31358C352.665 -3.8748 352.555 -4.43056 352.34 -4.94911C352.126 -5.46766 351.811 -5.93882 351.414 -6.33566C351.017 -6.73249 350.546 -7.04723 350.027 -7.26186C349.509 -7.47649 348.953 -7.58682 348.392 -7.58654L329.37 -7.58653C328.809 -7.58682 328.253 -7.47649 327.735 -7.26186C327.216 -7.04722 326.745 -6.73249 326.348 -6.33565C325.952 -5.93881 325.637 -5.46765 325.422 -4.94911C325.208 -4.43056 325.097 -3.87479 325.097 -3.31358L325.097 15.708Z" stroke="#EF4444" stroke-width="5.31631" stroke-linecap="round" stroke-linejoin="round"/>
<path d="M-24.5663 526.717C-24.5666 527.278 -24.4563 527.834 -24.2417 528.352C-24.027 528.871 -23.7123 529.342 -23.3155 529.739C-22.9186 530.136 -22.4475 530.45 -21.9289 530.665C-21.4104 530.88 -20.8546 530.99 -20.2934 530.99L-1.27185 530.99C-0.710638 530.99 -0.154869 530.88 0.363679 530.665C0.882227 530.45 1.35339 530.136 1.75023 529.739C2.14706 529.342 2.4618 528.871 2.67643 528.352C2.89106 527.834 3.00139 527.278 3.0011 526.717L3.0011 507.695C3.00139 507.134 2.89106 506.578 2.67643 506.06C2.46179 505.541 2.14706 505.07 1.75022 504.673C1.35338 504.276 0.882223 503.961 0.363675 503.747C-0.154874 503.532 -0.710639 503.422 -1.27185 503.422L-20.2934 503.422C-20.8546 503.422 -21.4104 503.532 -21.9289 503.747C-22.4475 503.961 -22.9186 504.276 -23.3155 504.673C-23.7123 505.07 -24.027 505.541 -24.2417 506.06C-24.4563 506.578 -24.5666 507.134 -24.5663 507.695L-24.5663 526.717Z" stroke="#EF4444" stroke-width="5.31631" stroke-linecap="round" stroke-linejoin="round"/>
<path d="M-23.3133 472.091C-23.3133 475.85 -23.0627 479.86 -20.1806 482.742C-19.2755 483.647 -18.2011 484.365 -17.0186 484.855C-15.8361 485.345 -14.5687 485.597 -13.2887 485.597C-10.7038 485.597 -8.22472 484.57 -6.39688 482.742C-4.14136 480.487 -3.26422 478.356 -3.26422 474.597C0.494977 474.597 2.62519 473.72 4.88071 471.465C5.78576 470.56 6.50368 469.485 6.99349 468.303C7.4833 467.12 7.73541 465.853 7.73541 464.573C7.73541 463.293 7.4833 462.025 6.99349 460.843C6.50368 459.66 5.78576 458.586 4.8807 457.681C1.99865 454.799 -2.01116 454.548 -5.77035 454.548L-23.3133 454.548L-23.3133 472.091Z" stroke="#0F172A" stroke-width="5.31631" stroke-linecap="round" stroke-linejoin="round"/>
<path d="M-3.26418 474.597L1.74809 479.61" stroke="#0F172A" stroke-width="5.31631" stroke-linecap="round" stroke-linejoin="round"/>
<path d="M27.5609 474.589C27.5606 475.151 27.6709 475.706 27.8855 476.225C28.1002 476.744 28.4149 477.215 28.8117 477.612C29.2086 478.008 29.6797 478.323 30.1983 478.538C30.7168 478.752 31.2726 478.863 31.8338 478.862L50.8553 478.862C51.4166 478.863 51.9723 478.752 52.4909 478.538C53.0094 478.323 53.4806 478.008 53.8774 477.612C54.2743 477.215 54.589 476.744 54.8036 476.225C55.0183 475.706 55.1286 475.151 55.1283 474.589L55.1283 455.568C55.1286 455.007 55.0183 454.451 54.8036 453.932C54.589 453.414 54.2743 452.943 53.8774 452.546C53.4806 452.149 53.0094 451.834 52.4909 451.62C51.9723 451.405 51.4166 451.295 50.8553 451.295L31.8338 451.295C31.2726 451.295 30.7168 451.405 30.1983 451.62C29.6797 451.834 29.2086 452.149 28.8117 452.546C28.4149 452.943 28.1002 453.414 27.8855 453.932C27.6709 454.451 27.5606 455.007 27.5609 455.568L27.5609 474.589Z" stroke="#EF4444" stroke-width="5.31631" stroke-linecap="round" stroke-linejoin="round"/>
<path d="M3.75671 409.948C3.7943 406.251 3.49357 402.166 0.624047 399.297C-1.20379 397.469 -3.68286 396.442 -6.26781 396.442C-8.85276 396.442 -11.3318 397.469 -13.1597 399.297C-15.3651 401.502 -16.2923 403.683 -16.2923 407.442C-20.0515 407.442 -22.2319 408.369 -24.4373 410.574C-26.2651 412.402 -27.292 414.881 -27.292 417.466C-27.292 420.051 -26.2651 422.53 -24.4373 424.358C-21.5552 427.24 -17.4827 427.553 -13.7862 427.491L3.75671 427.491L3.75671 409.948Z" stroke="#EF4444" stroke-width="5.31631" stroke-linecap="round" stroke-linejoin="round"/>
<path d="M49.5857 399.305C48.8581 397.978 47.8317 396.839 46.5876 395.978C45.3435 395.117 43.916 394.557 42.4181 394.343C40.9202 394.129 39.3931 394.267 37.9576 394.745C36.5222 395.224 35.2178 396.03 34.1479 397.1C33.078 398.17 32.2718 399.474 31.7933 400.909C31.3149 402.345 31.1772 403.872 31.3911 405.37C31.6051 406.868 32.1649 408.295 33.0262 409.539C33.8875 410.783 35.0266 411.81 36.3533 412.537C35.3855 413.83 34.7541 415.343 34.5158 416.94C34.2775 418.538 34.4398 420.169 34.9882 421.688C35.5365 423.207 36.4537 424.566 37.6572 425.642C38.8608 426.719 40.313 427.48 41.8834 427.856C43.4538 428.233 45.0931 428.213 46.6541 427.799C48.215 427.385 49.6486 426.59 50.8261 425.485C52.0035 424.38 52.8879 422.999 53.3997 421.468C53.9116 419.936 54.0348 418.301 53.7584 416.71C55.3503 416.991 56.9871 416.871 58.5213 416.362C60.0554 415.852 61.4388 414.969 62.5469 413.793C63.655 412.616 64.4529 411.181 64.8688 409.619C65.2848 408.057 65.3057 406.416 64.9296 404.844C64.5536 403.272 63.7924 401.818 62.7147 400.613C61.6369 399.408 60.2764 398.491 58.7557 397.942C57.235 397.394 55.6018 397.233 54.0032 397.473C52.4046 397.713 50.8908 398.347 49.5982 399.318L49.5857 399.305Z" stroke="#0F172A" stroke-width="5.31631" stroke-linecap="round" stroke-linejoin="round"/>
<path d="M53.7584 416.71L59.1967 422.148" stroke="#0F172A" stroke-width="5.31631" stroke-linecap="round" stroke-linejoin="round"/>
<path d="M83.0177 419.133C83.0174 419.694 83.1277 420.25 83.3424 420.768C83.557 421.287 83.8717 421.758 84.2686 422.155C84.6654 422.551 85.1366 422.866 85.6551 423.081C86.1737 423.295 86.7294 423.406 87.2906 423.406L106.312 423.406C106.873 423.406 107.429 423.295 107.948 423.081C108.466 422.866 108.937 422.551 109.334 422.155C109.731 421.758 110.046 421.287 110.26 420.768C110.475 420.25 110.585 419.694 110.585 419.133L110.585 400.111C110.585 399.55 110.475 398.994 110.26 398.475C110.046 397.957 109.731 397.486 109.334 397.089C108.937 396.692 108.466 396.377 107.948 396.163C107.429 395.948 106.873 395.838 106.312 395.838L87.2906 395.838C86.7294 395.838 86.1737 395.948 85.6551 396.163C85.1366 396.377 84.6654 396.692 84.2686 397.089C83.8717 397.486 83.557 397.957 83.3424 398.476C83.1277 398.994 83.0174 399.55 83.0177 400.111L83.0177 419.133Z" stroke="#EF4444" stroke-width="5.31631" stroke-linecap="round" stroke-linejoin="round"/>
<path d="M59.2135 354.491C59.2511 350.794 58.9504 346.709 56.0809 343.84C54.253 342.012 51.774 340.985 49.189 340.985C46.6041 340.985 44.125 342.012 42.2972 343.84C40.0918 346.045 39.1645 348.226 39.1645 351.985C35.4053 351.985 33.225 352.912 31.0196 355.118C29.1917 356.945 28.1649 359.424 28.1649 362.009C28.1649 364.594 29.1917 367.073 31.0196 368.901C33.9016 371.783 37.9741 372.097 41.6706 372.034L59.2135 372.034L59.2135 354.491Z" stroke="#EF4444" stroke-width="5.31631" stroke-linecap="round" stroke-linejoin="round"/>
<path d="M84.2708 364.507C84.2708 368.266 84.5214 372.276 87.4034 375.158C88.3085 376.063 89.3829 376.781 90.5654 377.271C91.748 377.761 93.0154 378.013 94.2953 378.013C96.8802 378.013 99.3593 376.986 101.187 375.158C103.443 372.903 104.32 370.772 104.32 367.013C108.079 367.013 110.209 366.136 112.465 363.881C113.37 362.976 114.088 361.901 114.578 360.719C115.067 359.536 115.319 358.269 115.319 356.989C115.319 355.709 115.067 354.441 114.578 353.259C114.088 352.076 113.37 351.002 112.465 350.097C109.583 347.215 105.573 346.964 101.814 346.964L84.2708 346.964L84.2708 364.507Z" stroke="#0F172A" stroke-width="5.31631" stroke-linecap="round" stroke-linejoin="round"/>
<path d="M104.32 367.013L109.332 372.025" stroke="#0F172A" stroke-width="5.31631" stroke-linecap="round" stroke-linejoin="round"/>
<path d="M135.145 367.005C135.145 367.567 135.255 368.122 135.47 368.641C135.684 369.159 135.999 369.631 136.396 370.027C136.793 370.424 137.264 370.739 137.782 370.954C138.301 371.168 138.857 371.279 139.418 371.278L158.439 371.278C159.001 371.279 159.556 371.168 160.075 370.954C160.593 370.739 161.065 370.424 161.461 370.027C161.858 369.631 162.173 369.159 162.388 368.641C162.602 368.122 162.713 367.567 162.712 367.005L162.712 347.984C162.713 347.423 162.602 346.867 162.388 346.348C162.173 345.83 161.858 345.359 161.461 344.962C161.065 344.565 160.593 344.25 160.075 344.036C159.556 343.821 159.001 343.711 158.439 343.711L139.418 343.711C138.857 343.711 138.301 343.821 137.782 344.036C137.264 344.25 136.793 344.565 136.396 344.962C135.999 345.359 135.684 345.83 135.47 346.348C135.255 346.867 135.145 347.423 135.145 347.984L135.145 367.005Z" stroke="#EF4444" stroke-width="5.31631" stroke-linecap="round" stroke-linejoin="round"/>
<path d="M111.341 302.364C111.378 298.667 111.078 294.582 108.208 291.713C106.38 289.885 103.901 288.858 101.316 288.858C98.7313 288.858 96.2522 289.885 94.4244 291.713C92.219 293.918 91.2917 296.098 91.2917 299.858C87.5325 299.858 85.3522 300.785 83.1468 302.99C81.3189 304.818 80.2921 307.297 80.2921 309.882C80.2921 312.467 81.3189 314.946 83.1468 316.774C86.0288 319.656 90.1013 319.969 93.7978 319.907L111.341 319.907L111.341 302.364Z" stroke="#EF4444" stroke-width="5.31631" stroke-linecap="round" stroke-linejoin="round"/>
<path d="M157.17 291.721C156.442 290.394 155.416 289.255 154.172 288.394C152.928 287.533 151.5 286.973 150.002 286.759C148.504 286.545 146.977 286.683 145.542 287.161C144.106 287.639 142.802 288.446 141.732 289.516C140.662 290.585 139.856 291.89 139.377 293.325C138.899 294.761 138.761 296.288 138.975 297.786C139.189 299.284 139.749 300.711 140.61 301.955C141.472 303.199 142.611 304.226 143.937 304.953C142.97 306.246 142.338 307.759 142.1 309.356C141.862 310.953 142.024 312.585 142.572 314.104C143.121 315.623 144.038 316.982 145.241 318.058C146.445 319.135 147.897 319.896 149.467 320.272C151.038 320.649 152.677 320.629 154.238 320.215C155.799 319.801 157.233 319.006 158.41 317.901C159.588 316.796 160.472 315.415 160.984 313.884C161.496 312.352 161.619 310.717 161.342 309.126C162.934 309.407 164.571 309.287 166.105 308.778C167.639 308.268 169.023 307.385 170.131 306.208C171.239 305.031 172.037 303.597 172.453 302.035C172.869 300.473 172.89 298.832 172.514 297.26C172.138 295.688 171.376 294.234 170.299 293.029C169.221 291.824 167.86 290.907 166.34 290.358C164.819 289.81 163.186 289.649 161.587 289.889C159.989 290.129 158.475 290.763 157.182 291.733L157.17 291.721Z" stroke="#0F172A" stroke-width="5.31631" stroke-linecap="round" stroke-linejoin="round"/>
<path d="M161.342 309.126L166.781 314.564" stroke="#0F172A" stroke-width="5.31631" stroke-linecap="round" stroke-linejoin="round"/>
<path d="M190.602 311.548C190.601 312.11 190.712 312.665 190.926 313.184C191.141 313.703 191.456 314.174 191.853 314.571C192.249 314.967 192.721 315.282 193.239 315.497C193.758 315.711 194.313 315.822 194.875 315.821L213.896 315.821C214.457 315.822 215.013 315.711 215.532 315.497C216.05 315.282 216.521 314.967 216.918 314.571C217.315 314.174 217.63 313.703 217.844 313.184C218.059 312.665 218.169 312.11 218.169 311.548L218.169 292.527C218.169 291.966 218.059 291.41 217.844 290.891C217.63 290.373 217.315 289.902 216.918 289.505C216.521 289.108 216.05 288.793 215.532 288.579C215.013 288.364 214.457 288.254 213.896 288.254L194.875 288.254C194.313 288.254 193.758 288.364 193.239 288.579C192.721 288.793 192.249 289.108 191.853 289.505C191.456 289.902 191.141 290.373 190.926 290.891C190.712 291.41 190.601 291.966 190.602 292.527L190.602 311.548Z" stroke="#EF4444" stroke-width="5.31631" stroke-linecap="round" stroke-linejoin="round"/>
<path d="M166.798 246.907C166.835 243.21 166.534 239.125 163.665 236.256C161.837 234.428 159.358 233.401 156.773 233.401C154.188 233.401 151.709 234.428 149.881 236.256C147.676 238.461 146.749 240.642 146.749 244.401C142.989 244.401 140.809 245.328 138.604 247.533C136.776 249.361 135.749 251.84 135.749 254.425C135.749 257.01 136.776 259.489 138.604 261.317C141.486 264.199 145.558 264.512 149.255 264.45L166.798 264.45L166.798 246.907Z" stroke="#EF4444" stroke-width="5.31631" stroke-linecap="round" stroke-linejoin="round"/>
<path d="M191.855 256.923C191.855 260.682 192.105 264.692 194.987 267.574C195.893 268.479 196.967 269.197 198.149 269.687C199.332 270.177 200.599 270.429 201.879 270.429C204.464 270.429 206.943 269.402 208.771 267.574C211.027 265.319 211.904 263.188 211.904 259.429C215.663 259.429 217.793 258.552 220.049 256.296C220.954 255.391 221.672 254.317 222.162 253.134C222.651 251.952 222.903 250.685 222.903 249.405C222.903 248.125 222.651 246.857 222.162 245.675C221.672 244.492 220.954 243.418 220.049 242.513C217.167 239.631 213.157 239.38 209.398 239.38L191.855 239.38L191.855 256.923Z" stroke="#0F172A" stroke-width="5.31631" stroke-linecap="round" stroke-linejoin="round"/>
<path d="M211.904 259.429L216.916 264.441" stroke="#0F172A" stroke-width="5.31631" stroke-linecap="round" stroke-linejoin="round"/>
<path d="M242.729 259.421C242.729 259.982 242.839 260.538 243.054 261.057C243.268 261.575 243.583 262.047 243.98 262.443C244.377 262.84 244.848 263.155 245.366 263.37C245.885 263.584 246.441 263.695 247.002 263.694L266.023 263.694C266.585 263.695 267.14 263.584 267.659 263.37C268.177 263.155 268.649 262.84 269.045 262.443C269.442 262.047 269.757 261.575 269.972 261.057C270.186 260.538 270.297 259.982 270.296 259.421L270.296 240.4C270.297 239.839 270.186 239.283 269.972 238.764C269.757 238.246 269.442 237.775 269.045 237.378C268.649 236.981 268.177 236.666 267.659 236.451C267.14 236.237 266.585 236.127 266.023 236.127L247.002 236.127C246.441 236.127 245.885 236.237 245.366 236.451C244.848 236.666 244.377 236.981 243.98 237.378C243.583 237.775 243.268 238.246 243.054 238.764C242.839 239.283 242.729 239.839 242.729 240.4L242.729 259.421Z" stroke="#EF4444" stroke-width="5.31631" stroke-linecap="round" stroke-linejoin="round"/>
<path d="M218.925 194.78C218.962 191.083 218.662 186.998 215.792 184.129C213.964 182.301 211.485 181.274 208.9 181.274C206.315 181.274 203.836 182.301 202.008 184.129C199.803 186.334 198.876 188.514 198.876 192.274C195.117 192.274 192.936 193.201 190.731 195.406C188.903 197.234 187.876 199.713 187.876 202.298C187.876 204.883 188.903 207.362 190.731 209.19C193.613 212.072 197.685 212.385 201.382 212.323L218.925 212.323L218.925 194.78Z" stroke="#EF4444" stroke-width="5.31631" stroke-linecap="round" stroke-linejoin="round"/>
<path d="M264.754 184.137C264.026 182.81 263 181.671 261.756 180.81C260.512 179.948 259.084 179.389 257.586 179.175C256.088 178.961 254.561 179.098 253.126 179.577C251.69 180.055 250.386 180.861 249.316 181.931C248.246 183.001 247.44 184.306 246.961 185.741C246.483 187.177 246.345 188.704 246.559 190.202C246.773 191.7 247.333 193.127 248.194 194.371C249.056 195.615 250.195 196.642 251.521 197.369C250.554 198.662 249.922 200.175 249.684 201.772C249.446 203.369 249.608 205.001 250.156 206.52C250.705 208.039 251.622 209.398 252.825 210.474C254.029 211.551 255.481 212.312 257.051 212.688C258.622 213.065 260.261 213.045 261.822 212.631C263.383 212.217 264.817 211.422 265.994 210.317C267.172 209.211 268.056 207.831 268.568 206.299C269.08 204.768 269.203 203.133 268.926 201.542C270.518 201.823 272.155 201.703 273.689 201.194C275.224 200.684 276.607 199.801 277.715 198.624C278.823 197.447 279.621 196.013 280.037 194.451C280.453 192.889 280.474 191.248 280.098 189.676C279.722 188.104 278.96 186.65 277.883 185.445C276.805 184.24 275.444 183.322 273.924 182.774C272.403 182.226 270.77 182.065 269.171 182.305C267.573 182.545 266.059 183.179 264.766 184.149L264.754 184.137Z" stroke="#0F172A" stroke-width="5.31631" stroke-linecap="round" stroke-linejoin="round"/>
<path d="M268.926 201.542L274.365 206.98" stroke="#0F172A" stroke-width="5.31631" stroke-linecap="round" stroke-linejoin="round"/>
<path d="M298.186 203.964C298.186 204.526 298.296 205.081 298.51 205.6C298.725 206.118 299.04 206.59 299.437 206.986C299.834 207.383 300.305 207.698 300.823 207.913C301.342 208.127 301.898 208.238 302.459 208.237L321.48 208.237C322.041 208.238 322.597 208.127 323.116 207.913C323.634 207.698 324.106 207.383 324.502 206.986C324.899 206.59 325.214 206.118 325.429 205.6C325.643 205.081 325.754 204.526 325.753 203.964L325.753 184.943C325.754 184.382 325.643 183.826 325.429 183.307C325.214 182.789 324.899 182.318 324.502 181.921C324.106 181.524 323.634 181.209 323.116 180.995C322.597 180.78 322.041 180.67 321.48 180.67L302.459 180.67C301.898 180.67 301.342 180.78 300.823 180.995C300.305 181.209 299.833 181.524 299.437 181.921C299.04 182.318 298.725 182.789 298.51 183.307C298.296 183.826 298.185 184.382 298.186 184.943L298.186 203.964Z" stroke="#EF4444" stroke-width="5.31631" stroke-linecap="round" stroke-linejoin="round"/>
<path d="M274.382 139.323C274.419 135.626 274.118 131.541 271.249 128.672C269.421 126.844 266.942 125.817 264.357 125.817C261.772 125.817 259.293 126.844 257.465 128.672C255.26 130.877 254.333 133.058 254.333 136.817C250.573 136.817 248.393 137.744 246.188 139.949C244.36 141.777 243.333 144.256 243.333 146.841C243.333 149.426 244.36 151.905 246.188 153.733C249.07 156.615 253.142 156.928 256.839 156.866L274.382 156.866L274.382 139.323Z" stroke="#EF4444" stroke-width="5.31631" stroke-linecap="round" stroke-linejoin="round"/>
<path d="M299.439 149.339C299.439 153.098 299.69 157.108 302.572 159.99C303.477 160.895 304.551 161.613 305.734 162.103C306.916 162.593 308.183 162.845 309.463 162.845C312.048 162.845 314.527 161.818 316.355 159.99C318.611 157.734 319.488 155.604 319.488 151.845C323.247 151.845 325.377 150.968 327.633 148.712C328.538 147.807 329.256 146.733 329.746 145.55C330.235 144.368 330.488 143.1 330.488 141.82C330.488 140.541 330.235 139.273 329.746 138.091C329.256 136.908 328.538 135.834 327.633 134.929C324.751 132.047 320.741 131.796 316.982 131.796L299.439 131.796L299.439 149.339Z" stroke="#0F172A" stroke-width="5.31631" stroke-linecap="round" stroke-linejoin="round"/>
<path d="M319.488 151.845L324.5 156.857" stroke="#0F172A" stroke-width="5.31631" stroke-linecap="round" stroke-linejoin="round"/>
<path d="M350.313 151.837C350.313 152.398 350.423 152.954 350.638 153.473C350.852 153.991 351.167 154.462 351.564 154.859C351.961 155.256 352.432 155.571 352.95 155.785C353.469 156 354.025 156.11 354.586 156.11L373.607 156.11C374.169 156.11 374.724 156 375.243 155.785C375.762 155.571 376.233 155.256 376.63 154.859C377.026 154.462 377.341 153.991 377.556 153.473C377.77 152.954 377.881 152.398 377.88 151.837L377.88 132.816C377.881 132.254 377.77 131.699 377.556 131.18C377.341 130.662 377.026 130.19 376.63 129.794C376.233 129.397 375.762 129.082 375.243 128.867C374.724 128.653 374.169 128.542 373.607 128.543L354.586 128.543C354.025 128.542 353.469 128.653 352.95 128.867C352.432 129.082 351.961 129.397 351.564 129.794C351.167 130.19 350.852 130.662 350.638 131.18C350.423 131.699 350.313 132.254 350.313 132.816L350.313 151.837Z" stroke="#EF4444" stroke-width="5.31631" stroke-linecap="round" stroke-linejoin="round"/>
<path d="M326.509 87.1956C326.546 83.4991 326.246 79.4141 323.376 76.5446C321.548 74.7167 319.069 73.6899 316.484 73.6899C313.899 73.6899 311.42 74.7167 309.592 76.5446C307.387 78.75 306.46 80.9303 306.46 84.6895C302.701 84.6895 300.52 85.6168 298.315 87.8222C296.487 89.65 295.46 92.1291 295.46 94.714C295.46 97.299 296.487 99.778 298.315 101.606C301.197 104.488 305.269 104.801 308.966 104.739L326.509 104.739L326.509 87.1956Z" stroke="#EF4444" stroke-width="5.31631" stroke-linecap="round" stroke-linejoin="round"/>
<path d="M372.338 76.5527C371.61 75.226 370.584 74.0869 369.34 73.2257C368.096 72.3644 366.668 71.8046 365.17 71.5906C363.672 71.3766 362.145 71.5143 360.71 71.9928C359.274 72.4713 357.97 73.2774 356.9 74.3473C355.83 75.4173 355.024 76.7216 354.545 78.1571C354.067 79.5925 353.929 81.1197 354.143 82.6176C354.357 84.1155 354.917 85.543 355.778 86.787C356.64 88.0311 357.779 89.0576 359.105 89.7851C358.138 91.0779 357.506 92.5909 357.268 94.1881C357.03 95.7853 357.192 97.4167 357.74 98.9356C358.289 100.455 359.206 101.813 360.409 102.89C361.613 103.967 363.065 104.728 364.636 105.104C366.206 105.481 367.845 105.461 369.406 105.047C370.967 104.633 372.401 103.838 373.578 102.733C374.756 101.627 375.64 100.247 376.152 98.7153C376.664 97.1837 376.787 95.5489 376.51 93.9578C378.102 94.2385 379.739 94.1187 381.273 93.6094C382.808 93.1001 384.191 92.2172 385.299 91.0403C386.407 89.8633 387.205 88.4292 387.621 86.8671C388.037 85.3051 388.058 83.6641 387.682 82.0919C387.306 80.5198 386.545 79.0658 385.467 77.861C384.389 76.6562 383.029 75.7384 381.508 75.1902C379.987 74.6421 378.354 74.4807 376.755 74.7207C375.157 74.9608 373.643 75.5946 372.35 76.5653L372.338 76.5527Z" stroke="#0F172A" stroke-width="5.31631" stroke-linecap="round" stroke-linejoin="round"/>
<path d="M376.511 93.9578L381.949 99.3961" stroke="#0F172A" stroke-width="5.31631" stroke-linecap="round" stroke-linejoin="round"/>
<path d="M405.77 96.3803C405.77 96.9415 405.88 97.4973 406.094 98.0158C406.309 98.5344 406.624 99.0055 407.021 99.4024C407.418 99.7992 407.889 100.114 408.407 100.329C408.926 100.543 409.482 100.654 410.043 100.653L429.064 100.653C429.626 100.654 430.181 100.543 430.7 100.329C431.218 100.114 431.69 99.7992 432.086 99.4024C432.483 99.0055 432.798 98.5344 433.013 98.0158C433.227 97.4973 433.338 96.9415 433.337 96.3803L433.337 77.3588C433.338 76.7976 433.227 76.2418 433.013 75.7232C432.798 75.2047 432.483 74.7335 432.086 74.3367C431.69 73.9399 431.218 73.6251 430.7 73.4105C430.181 73.1959 429.626 73.0855 429.064 73.0858L410.043 73.0858C409.482 73.0855 408.926 73.1959 408.407 73.4105C407.889 73.6251 407.418 73.9399 407.021 74.3367C406.624 74.7335 406.309 75.2047 406.094 75.7233C405.88 76.2418 405.77 76.7976 405.77 77.3588L405.77 96.3803Z" stroke="#EF4444" stroke-width="5.31631" stroke-linecap="round" stroke-linejoin="round"/>
<path d="M381.966 31.7388C382.003 28.0422 381.703 23.9572 378.833 21.0877C377.005 19.2599 374.526 18.233 371.941 18.233C369.356 18.233 366.877 19.2599 365.049 21.0877C362.844 23.2931 361.917 25.4734 361.917 29.2326C358.157 29.2326 355.977 30.1599 353.772 32.3653C351.944 34.1931 350.917 36.6722 350.917 39.2572C350.917 41.8421 351.944 44.3212 353.772 46.149C356.654 49.0311 360.726 49.3443 364.423 49.2817L381.966 49.2817L381.966 31.7388Z" stroke="#EF4444" stroke-width="5.31631" stroke-linecap="round" stroke-linejoin="round"/>
<path d="M407.023 41.7548C407.023 45.514 407.274 49.5238 410.156 52.4059C411.061 53.3109 412.135 54.0289 413.318 54.5187C414.5 55.0085 415.768 55.2606 417.047 55.2606C419.632 55.2606 422.111 54.2337 423.939 52.4059C426.195 50.1504 427.072 48.0201 427.072 44.2609C430.831 44.2609 432.961 43.3838 435.217 41.1283C436.122 40.2232 436.84 39.1488 437.33 37.9663C437.819 36.7838 438.072 35.5164 438.072 34.2364C438.072 32.9565 437.819 31.6891 437.33 30.5066C436.84 29.3241 436.122 28.2496 435.217 27.3446C432.335 24.4625 428.325 24.2119 424.566 24.2119L407.023 24.2119L407.023 41.7548Z" stroke="#0F172A" stroke-width="5.31631" stroke-linecap="round" stroke-linejoin="round"/>
<path d="M427.072 44.261L432.084 49.2732" stroke="#0F172A" stroke-width="5.31631" stroke-linecap="round" stroke-linejoin="round"/>
<path d="M457.897 44.2531C457.897 44.8143 458.007 45.3701 458.222 45.8886C458.436 46.4072 458.751 46.8783 459.148 47.2752C459.545 47.672 460.016 47.9868 460.534 48.2014C461.053 48.416 461.609 48.5264 462.17 48.5261L481.191 48.5261C481.753 48.5263 482.308 48.416 482.827 48.2014C483.346 47.9868 483.817 47.672 484.214 47.2752C484.61 46.8783 484.925 46.4072 485.14 45.8886C485.354 45.3701 485.465 44.8143 485.464 44.2531L485.464 25.2316C485.465 24.6704 485.354 24.1146 485.14 23.596C484.925 23.0775 484.61 22.6063 484.214 22.2095C483.817 21.8127 483.346 21.4979 482.827 21.2833C482.308 21.0687 481.753 20.9583 481.191 20.9586L462.17 20.9586C461.609 20.9583 461.053 21.0687 460.534 21.2833C460.016 21.4979 459.545 21.8127 459.148 22.2095C458.751 22.6063 458.436 23.0775 458.222 23.5961C458.007 24.1146 457.897 24.6704 457.897 25.2316L457.897 44.2531Z" stroke="#EF4444" stroke-width="5.31631" stroke-linecap="round" stroke-linejoin="round"/>
<path d="M434.093 -20.3885C434.13 -24.085 433.83 -28.17 430.96 -31.0395C429.132 -32.8673 426.653 -33.8942 424.068 -33.8942C421.483 -33.8942 419.004 -32.8673 417.176 -31.0395C414.971 -28.8341 414.044 -26.6538 414.044 -22.8946C410.285 -22.8946 408.104 -21.9673 405.899 -19.7619C404.071 -17.9341 403.044 -15.455 403.044 -12.8701C403.044 -10.2851 404.071 -7.80603 405.899 -5.97819C408.781 -3.09615 412.853 -2.78288 416.55 -2.84553L434.093 -2.84554L434.093 -20.3885Z" stroke="#EF4444" stroke-width="5.31631" stroke-linecap="round" stroke-linejoin="round"/>
<path d="M479.922 -31.0313C479.194 -32.358 478.168 -33.4971 476.924 -34.3584C475.68 -35.2197 474.252 -35.7795 472.754 -35.9935C471.256 -36.2074 469.729 -36.0697 468.294 -35.5912C466.858 -35.1128 465.554 -34.3066 464.484 -33.2367C463.414 -32.1668 462.608 -30.8624 462.129 -29.427C461.651 -27.9915 461.513 -26.4644 461.727 -24.9665C461.941 -23.4686 462.501 -22.0411 463.362 -20.797C464.224 -19.5529 465.363 -18.5265 466.689 -17.7989C465.722 -16.5062 465.09 -14.9932 464.852 -13.396C464.614 -11.7988 464.776 -10.1674 465.324 -8.64842C465.873 -7.12947 466.79 -5.77057 467.993 -4.69385C469.197 -3.61714 470.649 -2.85634 472.22 -2.47986C473.79 -2.10337 475.429 -2.12299 476.99 -2.53694C478.551 -2.9509 479.985 -3.74622 481.162 -4.85143C482.34 -5.95664 483.224 -7.3371 483.736 -8.86873C484.248 -10.4004 484.371 -12.0352 484.094 -13.6262C485.686 -13.3456 487.323 -13.4653 488.857 -13.9746C490.392 -14.4839 491.775 -15.3668 492.883 -16.5438C493.991 -17.7208 494.789 -19.1548 495.205 -20.7169C495.621 -22.279 495.642 -23.92 495.266 -25.4921C494.89 -27.0643 494.129 -28.5182 493.051 -29.723C491.973 -30.9278 490.613 -31.8456 489.092 -32.3938C487.571 -32.942 485.938 -33.1033 484.339 -32.8633C482.741 -32.6233 481.227 -31.9894 479.934 -31.0188L479.922 -31.0313Z" stroke="#0F172A" stroke-width="5.31631" stroke-linecap="round" stroke-linejoin="round"/>
<path d="M513.354 -11.2038C513.354 -10.6425 513.464 -10.0868 513.679 -9.56823C513.893 -9.04968 514.208 -8.57852 514.605 -8.18169C515.002 -7.78485 515.473 -7.47012 515.991 -7.25548C516.51 -7.04085 517.066 -6.93052 517.627 -6.93081L536.648 -6.93081C537.21 -6.93052 537.765 -7.04085 538.284 -7.25549C538.802 -7.47012 539.274 -7.78485 539.67 -8.18169C540.067 -8.57853 540.382 -9.04969 540.597 -9.56824C540.811 -10.0868 540.922 -10.6426 540.921 -11.2038L540.921 -30.2253C540.922 -30.7865 540.811 -31.3423 540.597 -31.8608C540.382 -32.3794 540.067 -32.8505 539.67 -33.2474C539.274 -33.6442 538.802 -33.9589 538.284 -34.1736C537.765 -34.3882 537.21 -34.4985 536.648 -34.4982L517.627 -34.4982C517.066 -34.4985 516.51 -34.3882 515.991 -34.1736C515.473 -33.9589 515.002 -33.6442 514.605 -33.2474C514.208 -32.8505 513.893 -32.3794 513.679 -31.8608C513.464 -31.3423 513.354 -30.7865 513.354 -30.2253L513.354 -11.2038Z" stroke="#EF4444" stroke-width="5.31631" stroke-linecap="round" stroke-linejoin="round"/>
</g>
</svg>
