<svg width="832" height="330" viewBox="0 0 832 330" fill="none" xmlns="http://www.w3.org/2000/svg">
<g opacity="0.2">
<path d="M8.514 61.0191C12.2105 61.0567 16.2955 60.756 19.1651 57.8865C20.9929 56.0587 22.0198 53.5796 22.0198 50.9946C22.0198 48.4097 20.9929 45.9306 19.1651 44.1028C16.9597 41.8974 14.7793 40.9701 11.0201 40.9701C11.0201 37.2109 10.0929 35.0306 7.88747 32.8252C6.05963 30.9973 3.58055 29.9705 0.995606 29.9705C-1.58934 29.9705 -4.06842 30.9973 -5.89625 32.8252C-8.7783 35.7072 -9.09157 39.7797 -9.02892 43.4762L-9.02891 61.0191L8.514 61.0191Z" stroke="#EF4444" stroke-width="5.31631" stroke-linecap="round" stroke-linejoin="round"/>
<path d="M-1.50225 86.0764C-5.26145 86.0764 -9.27126 86.327 -12.1533 89.209C-13.0584 90.1141 -13.7763 91.1885 -14.2661 92.371C-14.7559 93.5536 -15.008 94.821 -15.008 96.1009C-15.008 98.6858 -13.9811 101.165 -12.1533 102.993C-9.89779 105.248 -7.76758 106.125 -4.00838 106.125C-4.00838 109.885 -3.13123 112.015 -0.875716 114.27C0.0293358 115.175 1.10379 115.893 2.2863 116.383C3.4688 116.873 4.73621 117.125 6.01614 117.125C7.29608 117.125 8.56348 116.873 9.74599 116.383C10.9285 115.893 12.003 115.175 12.908 114.27C15.7901 111.388 16.0407 107.378 16.0407 103.619L16.0407 86.0764L-1.50225 86.0764Z" stroke="#0F172A" stroke-width="5.31631" stroke-linecap="round" stroke-linejoin="round"/>
<path d="M-4.00051 136.951C-4.56172 136.95 -5.11749 137.061 -5.63604 137.275C-6.15459 137.49 -6.62575 137.805 -7.02259 138.201C-7.41942 138.598 -7.73416 139.069 -7.94879 139.588C-8.16342 140.107 -8.27375 140.662 -8.27346 141.223L-8.27346 160.245C-8.27375 160.806 -8.16342 161.362 -7.94879 161.881C-7.73416 162.399 -7.41943 162.87 -7.02259 163.267C-6.62575 163.664 -6.15459 163.979 -5.63604 164.193C-5.11749 164.408 -4.56172 164.518 -4.00051 164.518L15.021 164.518C15.5822 164.518 16.138 164.408 16.6565 164.193C17.1751 163.979 17.6463 163.664 18.0431 163.267C18.4399 162.87 18.7547 162.399 18.9693 161.881C19.1839 161.362 19.2943 160.806 19.294 160.245L19.294 141.223C19.2943 140.662 19.1839 140.107 18.9693 139.588C18.7547 139.069 18.4399 138.598 18.0431 138.201C17.6463 137.805 17.1751 137.49 16.6565 137.275C16.138 137.061 15.5822 136.95 15.021 136.951L-4.00051 136.951Z" stroke="#EF4444" stroke-width="5.31631" stroke-linecap="round" stroke-linejoin="round"/>
<path d="M60.6412 113.146C64.3377 113.184 68.4227 112.883 71.2923 110.014C73.1201 108.186 74.147 105.707 74.147 103.122C74.147 100.537 73.1201 98.0578 71.2923 96.23C69.0869 94.0246 66.9065 93.0973 63.1473 93.0973C63.1473 89.3381 62.2201 87.1578 60.0147 84.9524C58.1868 83.1246 55.7078 82.0977 53.1228 82.0977C50.5379 82.0977 48.0588 83.1246 46.2309 84.9524C43.3489 87.8345 43.0356 91.9069 43.0983 95.6035L43.0983 113.146L60.6412 113.146Z" stroke="#EF4444" stroke-width="5.31631" stroke-linecap="round" stroke-linejoin="round"/>
<path d="M71.2839 158.975C72.6106 158.248 73.7497 157.221 74.611 155.977C75.4723 154.733 76.0321 153.306 76.2461 151.808C76.4601 150.31 76.3223 148.783 75.8439 147.347C75.3654 145.912 74.5592 144.607 73.4893 143.538C72.4194 142.468 71.1151 141.661 69.6796 141.183C68.2441 140.705 66.717 140.567 65.2191 140.781C63.7212 140.995 62.2937 141.555 61.0496 142.416C59.8056 143.277 58.7791 144.416 58.0516 145.743C56.7588 144.775 55.2458 144.144 53.6486 143.905C52.0514 143.667 50.42 143.829 48.901 144.378C47.3821 144.926 46.0232 145.843 44.9465 147.047C43.8697 148.25 43.109 149.703 42.7325 151.273C42.356 152.843 42.3756 154.483 42.7896 156.044C43.2035 157.605 43.9988 159.038 45.104 160.216C46.2093 161.393 47.5897 162.278 49.1213 162.789C50.653 163.301 52.2878 163.424 53.8789 163.148C53.5982 164.74 53.7179 166.377 54.2272 167.911C54.7365 169.445 55.6194 170.828 56.7964 171.937C57.9734 173.045 59.4075 173.843 60.9695 174.258C62.5316 174.674 64.1726 174.695 65.7448 174.319C67.3169 173.943 68.7708 173.182 69.9756 172.104C71.1804 171.027 72.0982 169.666 72.6464 168.145C73.1946 166.625 73.356 164.991 73.1159 163.393C72.8759 161.794 72.242 160.28 71.2714 158.988L71.2839 158.975Z" stroke="#0F172A" stroke-width="5.31631" stroke-linecap="round" stroke-linejoin="round"/>
<path d="M53.8789 163.148L48.4406 168.586" stroke="#0F172A" stroke-width="5.31631" stroke-linecap="round" stroke-linejoin="round"/>
<path d="M51.4563 192.407C50.8951 192.407 50.3393 192.517 49.8207 192.732C49.3022 192.947 48.831 193.261 48.4342 193.658C48.0374 194.055 47.7226 194.526 47.508 195.045C47.2934 195.563 47.183 196.119 47.1833 196.68L47.1833 215.702C47.183 216.263 47.2934 216.819 47.508 217.337C47.7226 217.856 48.0374 218.327 48.4342 218.724C48.831 219.121 49.3022 219.435 49.8207 219.65C50.3393 219.865 50.8951 219.975 51.4563 219.975L70.4778 219.975C71.039 219.975 71.5948 219.865 72.1133 219.65C72.6319 219.435 73.103 219.121 73.4999 218.724C73.8967 218.327 74.2115 217.856 74.4261 217.337C74.6407 216.819 74.751 216.263 74.7508 215.702L74.7508 196.68C74.751 196.119 74.6407 195.563 74.4261 195.045C74.2115 194.526 73.8967 194.055 73.4999 193.658C73.103 193.261 72.6319 192.947 72.1133 192.732C71.5948 192.517 71.039 192.407 70.4778 192.407L51.4563 192.407Z" stroke="#EF4444" stroke-width="5.31631" stroke-linecap="round" stroke-linejoin="round"/>
<path d="M116.098 168.603C119.795 168.641 123.88 168.34 126.749 165.471C128.577 163.643 129.604 161.164 129.604 158.579C129.604 155.994 128.577 153.515 126.749 151.687C124.544 149.481 122.363 148.554 118.604 148.554C118.604 144.795 117.677 142.615 115.471 140.409C113.644 138.581 111.165 137.555 108.58 137.555C105.995 137.555 103.516 138.581 101.688 140.409C98.8057 143.291 98.4924 147.364 98.5551 151.06L98.5551 168.603L116.098 168.603Z" stroke="#EF4444" stroke-width="5.31631" stroke-linecap="round" stroke-linejoin="round"/>
<path d="M106.082 193.66C102.323 193.66 98.3127 193.911 95.4307 196.793C94.5256 197.698 93.8077 198.773 93.3179 199.955C92.8281 201.138 92.576 202.405 92.576 203.685C92.576 206.27 93.6028 208.749 95.4307 210.577C97.6862 212.832 99.8164 213.709 103.576 213.709C103.576 217.469 104.453 219.599 106.708 221.854C107.613 222.759 108.688 223.477 109.87 223.967C111.053 224.457 112.32 224.709 113.6 224.709C114.88 224.709 116.147 224.457 117.33 223.967C118.512 223.477 119.587 222.759 120.492 221.854C123.374 218.972 123.625 214.963 123.625 211.203L123.625 193.66L106.082 193.66Z" stroke="#0F172A" stroke-width="5.31631" stroke-linecap="round" stroke-linejoin="round"/>
<path d="M103.576 213.709L98.5634 218.722" stroke="#0F172A" stroke-width="5.31631" stroke-linecap="round" stroke-linejoin="round"/>
<path d="M103.583 244.535C103.022 244.534 102.466 244.645 101.948 244.859C101.429 245.074 100.958 245.389 100.561 245.785C100.165 246.182 99.8498 246.653 99.6352 247.172C99.4206 247.69 99.3102 248.246 99.3105 248.807L99.3105 267.829C99.3102 268.39 99.4206 268.946 99.6352 269.465C99.8498 269.983 100.165 270.454 100.561 270.851C100.958 271.248 101.429 271.563 101.948 271.777C102.466 271.992 103.022 272.102 103.583 272.102L122.605 272.102C123.166 272.102 123.722 271.992 124.241 271.777C124.759 271.563 125.23 271.248 125.627 270.851C126.024 270.454 126.339 269.983 126.553 269.465C126.768 268.946 126.878 268.39 126.878 267.829L126.878 248.807C126.878 248.246 126.768 247.69 126.553 247.172C126.339 246.653 126.024 246.182 125.627 245.785C125.23 245.389 124.759 245.074 124.241 244.859C123.722 244.645 123.166 244.534 122.605 244.535L103.583 244.535Z" stroke="#EF4444" stroke-width="5.31631" stroke-linecap="round" stroke-linejoin="round"/>
<path d="M168.225 220.73C171.922 220.768 176.007 220.467 178.876 217.598C180.704 215.77 181.731 213.291 181.731 210.706C181.731 208.121 180.704 205.642 178.876 203.814C176.671 201.609 174.491 200.681 170.731 200.681C170.731 196.922 169.804 194.742 167.599 192.536C165.771 190.709 163.292 189.682 160.707 189.682C158.122 189.682 155.643 190.709 153.815 192.536C150.933 195.419 150.62 199.491 150.682 203.188L150.682 220.73L168.225 220.73Z" stroke="#EF4444" stroke-width="5.31631" stroke-linecap="round" stroke-linejoin="round"/>
<path d="M178.868 266.559C180.195 265.832 181.334 264.805 182.195 263.561C183.057 262.317 183.616 260.89 183.83 259.392C184.044 257.894 183.907 256.367 183.428 254.931C182.95 253.496 182.143 252.192 181.074 251.122C180.004 250.052 178.699 249.246 177.264 248.767C175.828 248.289 174.301 248.151 172.803 248.365C171.305 248.579 169.878 249.139 168.634 250C167.39 250.861 166.363 252 165.636 253.327C164.343 252.359 162.83 251.728 161.233 251.489C159.636 251.251 158.004 251.414 156.485 251.962C154.966 252.51 153.607 253.427 152.531 254.631C151.454 255.834 150.693 257.287 150.317 258.857C149.94 260.427 149.96 262.067 150.374 263.628C150.788 265.189 151.583 266.622 152.688 267.8C153.793 268.977 155.174 269.862 156.706 270.373C158.237 270.885 159.872 271.008 161.463 270.732C161.182 272.324 161.302 273.961 161.811 275.495C162.321 277.029 163.204 278.413 164.381 279.521C165.558 280.629 166.992 281.427 168.554 281.843C170.116 282.258 171.757 282.279 173.329 281.903C174.901 281.527 176.355 280.766 177.56 279.688C178.765 278.611 179.682 277.25 180.231 275.729C180.779 274.209 180.94 272.575 180.7 270.977C180.46 269.378 179.826 267.865 178.856 266.572L178.868 266.559Z" stroke="#0F172A" stroke-width="5.31631" stroke-linecap="round" stroke-linejoin="round"/>
<path d="M161.463 270.732L156.025 276.17" stroke="#0F172A" stroke-width="5.31631" stroke-linecap="round" stroke-linejoin="round"/>
<path d="M159.041 299.991C158.479 299.991 157.924 300.101 157.405 300.316C156.886 300.531 156.415 300.845 156.018 301.242C155.622 301.639 155.307 302.11 155.092 302.629C154.878 303.147 154.767 303.703 154.768 304.264L154.768 323.286C154.767 323.847 154.878 324.403 155.092 324.921C155.307 325.44 155.622 325.911 156.018 326.308C156.415 326.705 156.886 327.02 157.405 327.234C157.924 327.449 158.479 327.559 159.041 327.559L178.062 327.559C178.623 327.559 179.179 327.449 179.698 327.234C180.216 327.02 180.687 326.705 181.084 326.308C181.481 325.911 181.796 325.44 182.01 324.921C182.225 324.403 182.335 323.847 182.335 323.286L182.335 304.264C182.335 303.703 182.225 303.147 182.01 302.629C181.796 302.11 181.481 301.639 181.084 301.242C180.687 300.845 180.216 300.531 179.698 300.316C179.179 300.101 178.623 299.991 178.062 299.991L159.041 299.991Z" stroke="#EF4444" stroke-width="5.31631" stroke-linecap="round" stroke-linejoin="round"/>
<path d="M223.682 276.187C227.379 276.225 231.464 275.924 234.333 273.055C236.161 271.227 237.188 268.748 237.188 266.163C237.188 263.578 236.161 261.099 234.333 259.271C232.128 257.065 229.948 256.138 226.188 256.138C226.188 252.379 225.261 250.199 223.056 247.993C221.228 246.165 218.749 245.139 216.164 245.139C213.579 245.139 211.1 246.165 209.272 247.993C206.39 250.875 206.077 254.948 206.139 258.644L206.139 276.187L223.682 276.187Z" stroke="#EF4444" stroke-width="5.31631" stroke-linecap="round" stroke-linejoin="round"/>
<path d="M213.666 301.244C209.907 301.244 205.897 301.495 203.015 304.377C202.11 305.282 201.392 306.357 200.902 307.539C200.412 308.722 200.16 309.989 200.16 311.269C200.16 313.854 201.187 316.333 203.015 318.161C205.27 320.416 207.401 321.294 211.16 321.294C211.16 325.053 212.037 327.183 214.292 329.438C215.198 330.343 216.272 331.061 217.455 331.551C218.637 332.041 219.904 332.293 221.184 332.293C222.464 332.293 223.732 332.041 224.914 331.551C226.097 331.061 227.171 330.343 228.076 329.438C230.958 326.556 231.209 322.547 231.209 318.787L231.209 301.244L213.666 301.244Z" stroke="#0F172A" stroke-width="5.31631" stroke-linecap="round" stroke-linejoin="round"/>
<path d="M211.16 321.294L206.148 326.306" stroke="#0F172A" stroke-width="5.31631" stroke-linecap="round" stroke-linejoin="round"/>
<path d="M275.809 328.314C279.506 328.352 283.591 328.051 286.46 325.182C288.288 323.354 289.315 320.875 289.315 318.29C289.315 315.705 288.288 313.226 286.46 311.398C284.255 309.193 282.075 308.265 278.316 308.265C278.316 304.506 277.388 302.326 275.183 300.12C273.355 298.293 270.876 297.266 268.291 297.266C265.706 297.266 263.227 298.293 261.399 300.12C258.517 303.002 258.204 307.075 258.266 310.771L258.266 328.314L275.809 328.314Z" stroke="#EF4444" stroke-width="5.31631" stroke-linecap="round" stroke-linejoin="round"/>
<path d="M-20.0312 193.819C-16.3346 193.856 -12.2496 193.556 -9.38011 190.686C-7.55228 188.858 -6.52541 186.379 -6.52541 183.794C-6.52541 181.209 -7.55228 178.73 -9.38011 176.902C-11.5855 174.697 -13.7658 173.77 -17.525 173.77C-17.525 170.01 -18.4523 167.83 -20.6577 165.625C-22.4855 163.797 -24.9646 162.77 -27.5496 162.77C-30.1345 162.77 -32.6136 163.797 -34.4414 165.625C-37.3235 168.507 -37.6367 172.579 -37.5741 176.276L-37.5741 193.819L-20.0312 193.819Z" stroke="#EF4444" stroke-width="5.31631" stroke-linecap="round" stroke-linejoin="round"/>
<path d="M-9.38843 239.648C-8.06172 238.92 -6.92263 237.894 -6.06135 236.65C-5.20008 235.406 -4.64028 233.978 -4.4263 232.48C-4.21231 230.982 -4.35001 229.455 -4.8285 228.02C-5.30699 226.584 -6.11311 225.28 -7.18304 224.21C-8.25297 223.14 -9.55731 222.334 -10.9928 221.855C-12.4282 221.377 -13.9554 221.239 -15.4533 221.453C-16.9512 221.667 -18.3787 222.227 -19.6227 223.088C-20.8668 223.949 -21.8933 225.089 -22.6208 226.415C-23.9136 225.447 -25.4265 224.816 -27.0238 224.578C-28.621 224.34 -30.2524 224.502 -31.7713 225.05C-33.2903 225.598 -34.6492 226.516 -35.7259 227.719C-36.8026 228.923 -37.5634 230.375 -37.9399 231.945C-38.3164 233.516 -38.2968 235.155 -37.8828 236.716C-37.4689 238.277 -36.6735 239.711 -35.5683 240.888C-34.4631 242.066 -33.0827 242.95 -31.551 243.462C-30.0194 243.974 -28.3846 244.097 -26.7935 243.82C-27.0742 245.412 -26.9544 247.049 -26.4451 248.583C-25.9358 250.117 -25.0529 251.501 -23.876 252.609C-22.699 253.717 -21.2649 254.515 -19.7028 254.931C-18.1408 255.347 -16.4998 255.368 -14.9276 254.992C-13.3555 254.616 -11.9015 253.854 -10.6967 252.777C-9.49193 251.699 -8.57412 250.338 -8.02594 248.818C-7.47775 247.297 -7.31641 245.664 -7.55644 244.065C-7.79648 242.467 -8.43034 240.953 -9.40097 239.66L-9.38843 239.648Z" stroke="#0F172A" stroke-width="5.31631" stroke-linecap="round" stroke-linejoin="round"/>
<path d="M-29.2161 273.08C-29.7773 273.079 -30.3331 273.19 -30.8516 273.404C-31.3702 273.619 -31.8413 273.934 -32.2382 274.331C-32.635 274.727 -32.9497 275.199 -33.1644 275.717C-33.379 276.236 -33.4893 276.791 -33.489 277.353L-33.489 296.374C-33.4893 296.935 -33.379 297.491 -33.1644 298.01C-32.9497 298.528 -32.635 298.999 -32.2382 299.396C-31.8413 299.793 -31.3702 300.108 -30.8516 300.322C-30.3331 300.537 -29.7773 300.647 -29.2161 300.647L-10.1946 300.647C-9.63334 300.647 -9.07758 300.537 -8.55903 300.322C-8.04048 300.108 -7.56932 299.793 -7.17248 299.396C-6.77564 298.999 -6.46091 298.528 -6.24628 298.01C-6.03164 297.491 -5.92132 296.935 -5.9216 296.374L-5.92161 277.353C-5.92132 276.791 -6.03164 276.236 -6.24628 275.717C-6.46091 275.199 -6.77565 274.727 -7.17248 274.331C-7.56932 273.934 -8.04048 273.619 -8.55903 273.404C-9.07758 273.19 -9.63334 273.079 -10.1946 273.08L-29.2161 273.08Z" stroke="#EF4444" stroke-width="5.31631" stroke-linecap="round" stroke-linejoin="round"/>
<path d="M35.4256 249.276C39.1222 249.313 43.2072 249.012 46.0767 246.143C47.9045 244.315 48.9314 241.836 48.9314 239.251C48.9314 236.666 47.9045 234.187 46.0767 232.359C43.8713 230.154 41.6909 229.226 37.9318 229.226C37.9317 225.467 37.0045 223.287 34.7991 221.082C32.9713 219.254 30.4922 218.227 27.9072 218.227C25.3223 218.227 22.8432 219.254 21.0154 221.082C18.1333 223.964 17.8201 228.036 17.8827 231.733L17.8827 249.276L35.4256 249.276Z" stroke="#EF4444" stroke-width="5.31631" stroke-linecap="round" stroke-linejoin="round"/>
<path d="M25.4094 274.333C21.6502 274.333 17.6404 274.583 14.7583 277.465C13.8533 278.37 13.1353 279.445 12.6455 280.627C12.1557 281.81 11.9036 283.077 11.9036 284.357C11.9036 286.942 12.9305 289.421 14.7583 291.249C17.0138 293.505 19.144 294.382 22.9032 294.382C22.9032 298.141 23.7804 300.271 26.0359 302.527C26.941 303.432 28.0154 304.15 29.1979 304.64C30.3804 305.129 31.6478 305.381 32.9278 305.381C34.2077 305.381 35.4751 305.129 36.6576 304.64C37.8401 304.15 38.9146 303.432 39.8196 302.527C42.7017 299.645 42.9523 295.635 42.9523 291.876L42.9523 274.333L25.4094 274.333Z" stroke="#0F172A" stroke-width="5.31631" stroke-linecap="round" stroke-linejoin="round"/>
<path d="M22.9033 294.382L17.8911 299.394" stroke="#0F172A" stroke-width="5.31631" stroke-linecap="round" stroke-linejoin="round"/>
<path d="M22.9111 325.207C22.3499 325.207 21.7941 325.317 21.2756 325.532C20.757 325.746 20.2859 326.061 19.889 326.458C19.4922 326.855 19.1775 327.326 18.9628 327.844C18.7482 328.363 18.6379 328.919 18.6382 329.48L18.6382 348.501C18.6379 349.063 18.7482 349.618 18.9628 350.137C19.1775 350.655 19.4922 351.127 19.889 351.523C20.2859 351.92 20.757 352.235 21.2756 352.45C21.7941 352.664 22.3499 352.775 22.9111 352.774L41.9326 352.774C42.4939 352.775 43.0496 352.664 43.5682 352.45C44.0867 352.235 44.5579 351.92 44.9547 351.523C45.3516 351.127 45.6663 350.655 45.8809 350.137C46.0956 349.618 46.2059 349.063 46.2056 348.501L46.2056 329.48C46.2059 328.919 46.0956 328.363 45.8809 327.844C45.6663 327.326 45.3516 326.855 44.9547 326.458C44.5579 326.061 44.0867 325.746 43.5682 325.532C43.0496 325.317 42.4939 325.207 41.9326 325.207L22.9111 325.207Z" stroke="#EF4444" stroke-width="5.31631" stroke-linecap="round" stroke-linejoin="round"/>
<path d="M87.5528 301.403C91.2494 301.44 95.3344 301.14 98.2039 298.27C100.032 296.442 101.059 293.963 101.059 291.378C101.059 288.793 100.032 286.314 98.2039 284.486C95.9985 282.281 93.8181 281.354 90.0589 281.354C90.0589 277.594 89.1317 275.414 86.9263 273.209C85.0984 271.381 82.6194 270.354 80.0344 270.354C77.4495 270.354 74.9704 271.381 73.1426 273.209C70.2605 276.091 69.9472 280.163 70.0099 283.86L70.0099 301.403L87.5528 301.403Z" stroke="#EF4444" stroke-width="5.31631" stroke-linecap="round" stroke-linejoin="round"/>
<path d="M98.1958 347.232C99.5225 346.504 100.662 345.478 101.523 344.234C102.384 342.99 102.944 341.562 103.158 340.064C103.372 338.566 103.234 337.039 102.756 335.604C102.277 334.168 101.471 332.864 100.401 331.794C99.3313 330.724 98.0269 329.918 96.5915 329.439C95.156 328.961 93.6289 328.823 92.131 329.037C90.6331 329.251 89.2056 329.811 87.9615 330.672C86.7174 331.534 85.691 332.673 84.9634 333.999C83.6707 333.032 82.1577 332.4 80.5605 332.162C78.9632 331.924 77.3319 332.086 75.8129 332.634C74.294 333.183 72.9351 334.1 71.8583 335.303C70.7816 336.507 70.0208 337.959 69.6443 339.529C69.2678 341.1 69.2875 342.739 69.7014 344.3C70.1154 345.861 70.9107 347.295 72.0159 348.472C73.1211 349.65 74.5016 350.534 76.0332 351.046C77.5648 351.558 79.1997 351.681 80.7907 351.404C80.5101 352.996 80.6298 354.633 81.1391 356.167C81.6484 357.701 82.5313 359.085 83.7083 360.193C84.8852 361.301 86.3193 362.099 87.8814 362.515C89.4435 362.931 91.0845 362.952 92.6566 362.576C94.2288 362.2 95.6827 361.438 96.8875 360.361C98.0923 359.283 99.0101 357.922 99.5583 356.402C100.106 354.881 100.268 353.248 100.028 351.649C99.7878 350.051 99.1539 348.537 98.1833 347.244L98.1958 347.232Z" stroke="#0F172A" stroke-width="5.31631" stroke-linecap="round" stroke-linejoin="round"/>
<path d="M143.01 356.86C146.706 356.897 150.791 356.596 153.661 353.727C155.489 351.899 156.516 349.42 156.516 346.835C156.516 344.25 155.489 341.771 153.661 339.943C151.456 337.738 149.275 336.811 145.516 336.811C145.516 333.051 144.589 330.871 142.383 328.666C140.555 326.838 138.076 325.811 135.491 325.811C132.907 325.811 130.427 326.838 128.6 328.666C125.718 331.548 125.404 335.62 125.467 339.317L125.467 356.86L143.01 356.86Z" stroke="#EF4444" stroke-width="5.31631" stroke-linecap="round" stroke-linejoin="round"/>
</g>
</svg>
